<?xml version="1.0" standalone="no"?>
<!DOCTYPE svg PUBLIC "-//W3C//DTD SVG 20010904//EN"
 "http://www.w3.org/TR/2001/REC-SVG-20010904/DTD/svg10.dtd">
<svg version="1.0" xmlns="http://www.w3.org/2000/svg"
 width="315.000000pt" height="315.000000pt" viewBox="0 0 315.000000 315.000000"
 preserveAspectRatio="xMidYMid meet">

<g transform="translate(0.000000,315.000000) scale(0.100000,-0.100000)"
fill="#FFC0CB" stroke="none">
<path d="M1390 3089 c-234 -30 -475 -125 -673 -266 -108 -77 -267 -238 -345
-348 -76 -107 -168 -289 -207 -410 -22 -67 -34 -89 -54 -100 -73 -38 -100
-117 -101 -297 l0 -98 39 39 c46 46 119 73 202 74 63 0 86 -11 76 -38 -6 -13
-20 -15 -99 -9 -85 5 -97 3 -138 -18 -51 -26 -70 -62 -54 -105 35 -101 302
-29 459 123 22 22 83 86 135 143 52 58 115 117 139 133 54 34 91 37 91 8 0
-11 -6 -20 -14 -20 -40 0 -169 -218 -197 -333 -23 -94 26 -127 96 -66 19 17
66 81 104 142 105 170 189 259 296 315 86 45 255 32 255 -20 0 -29 -24 -32
-85 -9 -146 55 -229 6 -390 -225 -121 -174 -179 -244 -227 -276 -49 -34 -71
-35 -99 -7 -17 17 -20 29 -15 63 9 58 72 183 154 309 48 71 67 107 57 107 -9
0 -68 -55 -132 -122 -310 -325 -400 -388 -529 -375 -57 6 -90 23 -112 59 -11
20 -12 13 -8 -61 7 -100 26 -145 81 -186 36 -26 44 -41 65 -110 33 -110 135
-312 212 -420 78 -111 237 -271 345 -348 165 -118 365 -205 566 -249 146 -31
438 -32 579 0 404 89 748 330 965 677 49 77 129 251 158 341 22 69 33 87 67
114 72 58 77 81 78 364 0 285 -4 306 -81 369 -38 31 -48 47 -72 120 -37 115
-115 270 -189 381 -83 122 -275 313 -396 394 -296 197 -661 285 -1002 241z
m276 -236 c27 -67 24 -81 -7 -29 l-22 37 -29 -53 c-38 -70 -102 -134 -160
-161 -27 -12 -48 -24 -48 -27 0 -3 21 -15 48 -28 76 -36 181 -150 170 -184 -3
-8 -12 1 -22 21 -42 81 -139 157 -223 176 -45 9 -41 21 11 34 96 24 200 127
233 228 9 29 19 51 21 48 3 -2 15 -30 28 -62z m91 -133 c25 -21 66 -49 91 -62
78 -37 79 -42 8 -77 -80 -39 -148 -112 -188 -199 -26 -56 -32 -64 -39 -47 -12
31 -10 55 4 50 7 -3 24 16 40 44 32 58 116 137 176 167 l43 22 -60 32 c-32 17
-77 49 -98 71 -49 51 -35 50 23 -1z m-377 -339 c0 -8 -3 -11 -6 -8 -4 4 -19
-13 -34 -36 -14 -23 -39 -48 -53 -56 -15 -8 -27 -17 -27 -20 1 -3 18 -18 39
-32 21 -15 44 -41 52 -57 12 -27 14 -29 27 -14 12 15 13 13 7 -13 -8 -40 -23
-53 -30 -29 -15 48 -42 89 -68 103 -16 9 -37 23 -48 33 -20 16 -20 16 2 23 36
12 97 74 110 112 8 26 14 32 20 22 5 -8 9 -20 9 -28z m114 -107 c28 -7 36 -24
12 -24 -8 0 -35 -16 -60 -35 -25 -19 -46 -31 -46 -26 0 10 50 55 72 65 10 5
10 7 -1 12 -22 10 -91 75 -91 86 0 6 20 -8 44 -30 25 -23 56 -44 70 -48z m776
-319 c68 -35 88 -105 52 -177 -11 -20 -40 -61 -65 -91 -26 -30 -47 -56 -47
-58 0 -2 21 -4 47 -4 39 0 48 -4 51 -19 4 -18 -1 -18 -61 -12 l-64 6 -79 -95
c-46 -55 -87 -95 -97 -95 -10 0 -27 -5 -38 -10 -37 -20 -19 7 68 99 l86 93
-46 -7 c-43 -7 -47 -6 -47 14 0 19 6 21 58 21 l59 0 65 68 c77 79 101 121 100
176 -1 32 -7 46 -28 65 -24 20 -35 23 -99 19 -90 -4 -184 -48 -254 -118 -58
-58 -77 -104 -61 -146 14 -36 26 -44 69 -44 45 0 106 36 163 99 31 34 52 49
62 45 26 -10 19 -29 -24 -67 -77 -71 -182 -108 -245 -87 -41 14 -75 60 -75
103 0 63 60 136 150 182 99 52 241 71 300 40z m638 -198 c2 -10 -18 -37 -50
-67 -46 -42 -50 -49 -30 -50 12 0 22 -5 22 -11 0 -7 -12 -9 -31 -7 -24 4 -35
-1 -56 -26 -36 -42 -67 -111 -60 -130 10 -24 29 -20 88 20 49 33 52 34 29 9
-42 -46 -101 -85 -132 -85 -15 0 -28 3 -28 8 0 4 -4 13 -9 20 -6 11 -15 9 -42
-7 -47 -29 -94 -27 -125 4 l-25 25 -37 -25 c-66 -45 -142 -26 -142 35 0 69
124 183 179 165 47 -15 12 -98 -54 -129 -36 -18 -55 -15 -55 9 0 14 21 25 49
25 27 0 71 38 71 61 0 56 -89 7 -122 -67 -20 -47 -14 -76 18 -88 23 -9 101 30
107 53 2 10 18 25 35 34 34 17 34 19 -3 -51 -13 -25 -14 -37 -6 -45 17 -17 60
10 83 53 22 40 22 117 0 112 -8 -1 -11 2 -7 8 3 6 11 8 16 5 5 -3 6 1 3 9 -9
23 39 50 65 36 25 -13 27 -38 5 -47 -10 -4 -22 1 -30 12 -12 17 -14 17 -20 1
-3 -9 -2 -51 2 -94 l9 -77 23 25 c29 31 102 128 102 135 0 3 -9 5 -20 5 -11 0
-20 5 -20 10 0 6 15 10 33 10 26 0 37 7 57 37 62 92 100 121 108 80z m-1834
-132 c12 -12 13 -22 5 -43 -22 -58 -95 -106 -119 -77 -9 11 -7 16 9 24 11 6
28 11 38 11 44 0 84 73 48 86 -36 14 -115 -77 -115 -134 0 -47 29 -58 83 -33
55 26 89 57 132 126 35 53 57 66 63 34 1 -8 -22 -41 -52 -74 -31 -33 -55 -64
-56 -70 0 -5 35 27 78 71 82 87 114 106 139 81 18 -18 11 -34 -49 -113 -44
-59 -45 -64 -17 -64 33 0 59 18 139 95 79 76 148 111 172 87 7 -7 17 -8 28 -2
13 7 22 5 30 -5 10 -12 2 -25 -44 -73 -56 -59 -68 -88 -42 -98 19 -7 53 11 95
50 27 25 31 27 22 8 -19 -36 -109 -102 -141 -102 -27 0 -46 22 -34 41 9 14 0
11 -36 -16 -51 -38 -100 -29 -100 17 0 24 -3 23 -52 -12 -54 -39 -101 -39
-106 1 -2 19 10 41 47 85 55 64 60 74 35 74 -18 0 -81 -61 -151 -144 -29 -35
-46 -47 -58 -43 -11 5 -14 13 -10 27 6 19 4 19 -31 -5 -81 -55 -160 -18 -136
63 18 60 108 140 159 142 6 0 18 -7 27 -15z m1984 3 c9 -9 15 -9 23 -1 13 13
39 6 39 -10 0 -5 -25 -36 -56 -69 -61 -64 -68 -94 -20 -91 16 1 37 10 47 19
11 10 21 15 24 12 3 -3 -10 -19 -30 -37 -56 -48 -115 -55 -115 -12 0 20 -2 19
-36 -4 -43 -29 -66 -31 -88 -9 -22 21 -20 33 12 85 34 52 52 69 112 103 50 29
70 32 88 14z m-488 -42 c0 -2 -8 -10 -17 -17 -16 -13 -17 -12 -4 4 13 16 21
21 21 13z m-692 -657 l27 -2 -28 -4 -29 -5 4 -99 c1 -54 2 -99 1 -99 -1 0 -9
7 -17 16 -12 11 -16 36 -16 99 0 57 -4 85 -12 88 -8 3 -6 6 5 6 11 1 20 12 25
34 l7 32 3 -32 c3 -28 8 -33 30 -34z m-888 27 c0 -12 -7 -13 -32 -5 -18 5 -52
9 -75 9 l-41 0 -1 -116 0 -117 79 6 c45 3 80 1 80 -4 0 -5 -43 -9 -95 -9 l-95
0 0 125 0 125 90 0 c71 0 90 -3 90 -14z m141 -131 c21 -55 39 -101 39 -102 0
-2 -8 -3 -19 -3 -14 0 -27 22 -55 95 -40 106 -43 118 -20 113 9 -2 31 -43 55
-103z m109 96 c0 -5 -7 -24 -16 -42 -11 -25 -14 -27 -10 -9 3 14 6 33 6 43 0
9 5 17 10 17 6 0 10 -4 10 -9z m224 -12 c19 -15 26 -30 26 -55 l0 -34 -75 0
c-74 0 -75 0 -75 -25 0 -14 11 -37 25 -50 25 -26 18 -33 -16 -15 -25 14 -49
62 -49 97 1 84 99 133 164 82z m128 -16 c2 -21 2 -68 0 -105 -3 -59 -6 -68
-23 -68 -17 0 -19 8 -19 98 0 54 3 102 7 105 17 18 32 4 35 -30z m132 21 c12
-12 16 -37 16 -105 0 -82 -2 -89 -20 -89 -18 0 -20 8 -22 97 -3 112 -12 122
-69 77 l-34 -26 33 31 c35 34 72 40 96 15z m437 -13 c34 -34 39 -92 14 -141
-19 -36 -77 -57 -117 -41 -55 21 -80 105 -49 164 29 54 106 63 152 18z m247
10 c3 -10 0 -12 -14 -7 -66 27 -140 12 -112 -21 6 -8 30 -24 52 -35 49 -24 86
-57 86 -75 0 -19 -37 -53 -57 -52 -14 0 -13 2 5 9 41 17 27 45 -45 86 -76 44
-90 71 -51 98 29 21 129 18 136 -3z m-934 -178 c-32 -23 -46 -14 -17 11 16 14
30 20 32 14 2 -6 -4 -17 -15 -25z m457 -4 c-36 -30 -54 -23 -23 9 16 17 31 25
37 19 6 -5 1 -15 -14 -28z m374 1 l40 -19 -40 6 c-46 7 -55 10 -55 24 0 12 8
11 55 -11z"/>
<path d="M1515 1614 c-59 -31 -105 -89 -105 -134 0 -54 73 -18 130 66 46 66
34 99 -25 68z"/>
<path d="M2995 1612 c-37 -23 -91 -83 -100 -112 -7 -21 9 -50 26 -50 18 0 101
84 119 121 14 27 16 39 7 48 -14 14 -17 14 -52 -7z"/>
<path d="M1360 900 c-11 -11 -20 -31 -20 -45 0 -24 3 -25 60 -25 56 0 60 2 60
23 0 59 -60 87 -100 47z"/>
<path d="M2043 883 c-20 -48 -12 -118 16 -146 46 -47 108 20 95 103 -8 54 -30
80 -65 80 -25 0 -32 -6 -46 -37z"/>
</g>
</svg>
